# xmcd
#
# Track frame offsets: 
#        150
#        22385
#        43223
#        73955
#        90470
#        113010
#        123835
#        150315
#        171335
#        188685
#        207345
#        229435
#        243648
#        262968
#        283730
#        296600
#
# Disc length: 4233 seconds
#
# Revision: 2
# Processed by: cddbd v1.5.2PL0 Copyright (c) Steve Scherf et al.
# Submitted via: ExactAudioCopyFreeDBPlugin 1.0
#
DISCID=f0108710
DTITLE=Stevie Ray Vaughan and Double Trouble And Jeff Beck - The Fire Me
DTITLE=ets The Fury
DYEAR=1989
DGENRE=Rock
TTITLE0=Jeff Beck With Terry Bozzio - Drums and Tony Hymas - Keyboasrdss
TTITLE0=, Synthesizer - Stand On It
TTITLE1=Stevie Ray Vaughan and Double Trouble - Tightrope
TTITLE2=Jeff Beck - Going Down
TTITLE3=Stevie Ray Vaughan and Double Trouble - Pride And Joy
TTITLE4=Jeff Beck With Terry Bozzio - Drums and Tony Hymas - Keyboasrdss
TTITLE4=, Synthesizer - Guitar Shop
TTITLE5=Stevie Ray Vaughan and Double Trouble - The House Is Rockin'
TTITLE6=Jeff Beck - Blue Wind
TTITLE7=Stevie Ray Vaughan and Double Trouble - Couldn't Stand The Weath
TTITLE7=er
TTITLE8=Jeff Beck With Terry Bozzio - Drums and Tony Hymas - Keyboasrdss
TTITLE8=, Synthesizer - Savoy
TTITLE9=Stevie Ray Vaughan and Double Trouble - Crossfire
TTITLE10=Jeff Beck - Freeway Jam
TTITLE11=Stevie Ray Vaughan and Double Trouble - Look At Little Sister
TTITLE12=Jeff Beck, Bogert and Appice - Superstition
TTITLE13=Stevie Ray Vaughan and Double Trouble - Superstition
TTITLE14=Jeff Beck - Beck's Bolero
TTITLE15=Stevie Ray Vaughan and Double Trouble - Willie The Wimp
EXTD=
EXTT0=Jeff Beck
EXTT1=Stevie Ray Vaughan
EXTT2=Jeff Beck
EXTT3=Stevie Ray Vaughan
EXTT4=Jeff Beck
EXTT5=Stevie Ray Vaughan
EXTT6=Jeff Beck
EXTT7=Stevie Ray Vaughan
EXTT8=Jeff Beck
EXTT9=Stevie Ray Vaughan
EXTT10=Jeff Beck
EXTT11=Stevie Ray Vaughan
EXTT12=Jeff Beck
EXTT13=Stevie Ray Vaughan
EXTT14=Jeff Beck
EXTT15=Stevie Ray Vaughan
PLAYORDER=
